<svg xmlns="http://www.w3.org/2000/svg" viewBox="0 0 48 48">
  <path fill="#FFC107" d="M43.6 20H24v8h11.3C33.7 33.6 29.3 36 24 36c-6.6 0-12-5.4-12-12s5.4-12 12-12c3 0 5.7 1.1 7.8 2.9l5.7-5.7C33.9 6.5 29.2 4 24 4 12.9 4 4 12.9 4 24s8.9 20 20 20c11 0 19.6-8 19.6-20 0-1.3-.1-2.7-.4-4z"/>
  <path fill="#FF3D00" d="m6.3 14.7 6.6 4.8C14.5 15.1 18.9 12 24 12c3 0 5.7 1.1 7.8 2.9l5.7-5.7C33.9 6.5 29.2 4 24 4c-7.5 0-14 4.1-17.7 10.7z"/>
  <path fill="#4CAF50" d="M24 44c5.2 0 9.9-1.9 13.5-5.1l-6.2-5.2C29.3 35.3 26.8 36 24 36c-5.2 0-9.7-3.4-11.3-8.1l-6.6 5.1C9.9 39.9 16.5 44 24 44z"/>
  <path fill="#1976D2" d="M43.6 20H24v8h11.3c-.9 2.4-2.5 4.5-4.5 5.9l6.2 5.2C40.8 35.5 44 30.2 44 24c0-1.3-.1-2.7-.4-4z"/>
</svg>
